<svg xmlns="http://www.w3.org/2000/svg" width="103" height="32" viewBox="0 0 103 32" fill="none">
    <g clip-path="url(#clip0_20497_63077)">
      <path
        d="M43.661 20.6761C42.6337 20.6761 41.7042 20.4787 40.8726 20.0593C40.0409 19.6398 39.3071 19.0724 38.7201 18.3816C38.133 17.6661 37.6683 16.8519 37.3259 15.8897C36.9834 14.9521 36.8367 13.9159 36.8367 12.8303C36.8367 11.6954 37.0079 10.6344 37.3748 9.64756C37.7172 8.66066 38.2064 7.8218 38.8424 7.10631C39.4783 6.39081 40.2121 5.82335 41.0927 5.40392C41.9733 4.98449 42.9516 4.78711 44.0034 4.78711C45.1775 4.78711 46.2048 5.03383 47.0609 5.55195C47.9415 6.0454 48.6264 6.7609 49.1645 7.6491V5.08318H53.2493V19.5412C53.2493 20.7254 53.0291 21.7863 52.5889 22.7486C52.1486 23.6861 51.5371 24.5003 50.7544 25.1664C49.9716 25.8326 49.0422 26.326 47.9415 26.6961C46.8408 27.0415 45.6422 27.2389 44.3214 27.2389C42.6581 27.2389 41.2395 26.9675 40.0654 26.4494C38.8913 25.9066 37.864 25.1418 36.9834 24.1302L39.5028 21.5643C40.0654 22.2058 40.7747 22.7239 41.6064 23.1186C42.438 23.5134 43.343 23.6861 44.2969 23.6861C44.8595 23.6861 45.3976 23.6121 45.9113 23.4394C46.425 23.2913 46.8652 23.0446 47.2566 22.7239C47.648 22.4031 47.9659 21.9837 48.1861 21.4409C48.4062 20.9228 48.5285 20.2813 48.5285 19.5658V18.0608C48.0638 18.9243 47.3789 19.5905 46.4983 20.0346C45.6178 20.454 44.6638 20.6761 43.661 20.6761ZM45.2753 16.9012C46.0091 16.9012 46.6451 16.7038 47.2077 16.2844C47.7703 15.8897 48.2105 15.3715 48.5285 14.7301V11.498C48.2105 10.6591 47.7458 10.0176 47.0854 9.52419C46.4494 9.03075 45.7645 8.8087 45.0307 8.8087C44.5171 8.8087 44.0523 8.93206 43.6365 9.15411C43.2207 9.37616 42.8538 9.6969 42.5603 10.067C42.2668 10.4617 42.0222 10.9058 41.851 11.3993C41.6797 11.8927 41.6064 12.4109 41.6064 12.9536C41.6064 13.5211 41.7042 14.0639 41.8754 14.5327C42.0711 15.0261 42.3157 15.4456 42.6581 15.791C43.0006 16.1364 43.3675 16.4324 43.8077 16.6298C44.248 16.8025 44.7372 16.9012 45.2753 16.9012Z"
        fill="#1E1C1C"
      />
      <path
        d="M63.9383 20.8974C62.6419 20.8974 61.4923 20.6754 60.465 20.2559C59.4377 19.8365 58.5571 19.2444 57.8478 18.5289C57.1384 17.7887 56.6003 16.9498 56.2089 15.9876C55.842 15.0254 55.6464 14.0385 55.6464 12.9776C55.6464 11.8427 55.842 10.7818 56.2089 9.79487C56.5758 8.80798 57.114 7.91978 57.8233 7.17961C58.5326 6.43944 59.3887 5.8473 60.416 5.4032C61.4434 4.9591 62.6174 4.76172 63.9138 4.76172C65.2347 4.76172 66.3843 4.98377 67.4116 5.4032C68.4389 5.8473 69.295 6.41476 70.0043 7.15493C70.7137 7.8951 71.2518 8.75863 71.5942 9.72086C71.9611 10.6831 72.1324 11.6946 72.1324 12.7802C72.1324 13.0516 72.1324 13.323 72.1079 13.5944C72.0834 13.8658 72.059 14.0879 72.0101 14.2852H60.6606C60.734 15.3215 61.1254 16.1357 61.7858 16.6784C62.4707 17.2212 63.2289 17.4926 64.085 17.4926C64.7699 17.4926 65.4303 17.3199 66.0663 16.9992C66.7023 16.6538 67.1181 16.2097 67.3382 15.6422L71.3252 16.7771C70.7137 18.0108 69.7842 18.9976 68.5123 19.7625C67.2404 20.5273 65.7239 20.8974 63.9383 20.8974ZM67.1915 11.3739C67.0936 10.387 66.7512 9.59749 66.1397 9.03003C65.5282 8.46257 64.7699 8.1665 63.8894 8.1665C62.9599 8.1665 62.2016 8.46257 61.6146 9.03003C61.0275 9.62217 60.6607 10.387 60.5628 11.3492H67.1915V11.3739Z"
        fill="#1E1C1C"
      />
      <path
        d="M81.8674 20.8969C80.5466 20.8969 79.3969 20.6748 78.3696 20.2554C77.3423 19.8113 76.4862 19.2438 75.7769 18.5037C75.0675 17.7635 74.5294 16.9 74.187 15.9378C73.8201 14.9509 73.6489 13.9393 73.6489 12.8784C73.6489 11.8175 73.8201 10.7812 74.187 9.81903C74.5539 8.83213 75.092 7.99327 75.7769 7.25311C76.4862 6.51294 77.3423 5.9208 78.3696 5.4767C79.3969 5.0326 80.571 4.81055 81.8674 4.81055C83.1882 4.81055 84.3379 5.0326 85.3652 5.4767C86.3925 5.9208 87.2486 6.51294 87.9579 7.25311C88.6673 7.99327 89.2054 8.85681 89.5723 9.81903C89.9392 10.8059 90.1349 11.8175 90.1349 12.8784C90.1349 13.9393 89.9636 14.9755 89.5967 15.9378C89.2298 16.9247 88.6917 17.7635 88.0068 18.5037C87.2975 19.2438 86.4414 19.836 85.4141 20.2554C84.3379 20.6995 83.1882 20.8969 81.8674 20.8969ZM78.443 12.8537C78.443 14.0873 78.761 15.0496 79.4214 15.7897C80.0574 16.5299 80.889 16.9 81.8919 16.9C82.3811 16.9 82.8213 16.8013 83.2372 16.6039C83.653 16.4065 83.9954 16.1351 84.3134 15.7651C84.6069 15.4196 84.8515 14.9755 85.0227 14.4821C85.194 13.9886 85.2918 13.4212 85.2918 12.829C85.2918 11.5954 84.9738 10.6332 84.3134 9.89304C83.6774 9.15287 82.8458 8.78279 81.8674 8.78279C81.3782 8.78279 80.9135 8.88148 80.4976 9.07886C80.0818 9.27623 79.7149 9.54763 79.4214 9.91772C79.1279 10.2631 78.8833 10.7072 78.7121 11.2007C78.5164 11.7188 78.443 12.2616 78.443 12.8537Z"
        fill="#1E1C1C"
      />
      <path
        d="M102.194 9.12892C101.068 9.15359 100.041 9.3263 99.1116 9.69638C98.1822 10.0418 97.5217 10.5846 97.1059 11.3001V20.6262H92.4096V5.08266H96.7146V8.21604C97.2527 7.17981 97.9131 6.34095 98.7447 5.74881C99.5764 5.15668 100.457 4.86061 101.411 4.83594C101.631 4.83594 101.778 4.83594 101.876 4.83594C101.973 4.83594 102.071 4.83594 102.169 4.86061V9.12892H102.194Z"
        fill="#1E1C1C"
      />
      <path
        d="M16.2714 28.9133C23.8396 28.9133 29.9748 22.7779 29.9748 15.2096C29.9748 7.64122 23.8396 1.50586 16.2714 1.50586C8.70313 1.50586 2.56787 7.64122 2.56787 15.2096C2.56787 22.7779 8.70313 28.9133 16.2714 28.9133Z"
        fill="white"
      />
      <path
        d="M16.246 0C7.38193 0 0.0240259 7.11111 -0.00066506 15.9506C-0.025356 20.3951 1.77708 24.4198 4.69062 27.3086C7.57946 30.1975 11.5794 32 15.9991 32C20.4188 32 24.4187 30.1975 27.3075 27.3086C30.1964 24.4198 31.9988 20.4198 31.9988 16V3.65432C32.0235 1.65432 30.3692 0 28.3445 0H16.246ZM27.0606 15.9506C27.0606 18.9877 25.8261 21.7531 23.8261 23.7284C21.8261 25.7284 19.0854 26.963 16.0485 26.963C13.0115 26.963 10.2461 25.7284 8.2708 23.7284C6.29553 21.7531 5.06098 19.037 5.03629 16.0247C4.98691 9.92593 10.1473 4.93827 16.246 4.93827H23.6039L19.4311 9.11111H16.1966C12.4436 9.11111 9.28313 12.0741 9.20906 15.8025C9.15968 17.7531 9.94979 19.5062 11.209 20.7901C12.4436 22.0247 14.1473 22.7901 16.0485 22.7901C17.6287 22.7901 19.1101 22.2469 20.2706 21.3333C21.4311 20.4198 22.2953 19.1358 22.6656 17.679H16.9373L20.2706 14.3457H27.0606V15.9506Z"
        fill="#0375F8"
      />
    </g>
    <defs>
      <clipPath id="clip0_20497_63077">
        <rect width="102.194" height="32" fill="white" />
      </clipPath>
    </defs>
</svg>